<svg width="54" height="63" viewBox="0 0 54 63" fill="none" xmlns="http://www.w3.org/2000/svg">
<path d="M47.5096 0H5.9387C2.67241 0 0 3.11133 0 6.91407V55.3126C0 59.1153 2.67241 62.2266 5.9387 62.2266H47.5096C50.7759 62.2266 53.4483 59.1153 53.4483 55.3126V6.91407C53.4483 3.11133 50.7759 0 47.5096 0ZM29.6935 48.3985H14.8467C13.2136 48.3985 11.8774 46.8428 11.8774 44.9414C11.8774 43.0401 13.2136 41.4844 14.8467 41.4844H29.6935C31.3266 41.4844 32.6628 43.0401 32.6628 44.9414C32.6628 46.8428 31.3266 48.3985 29.6935 48.3985ZM38.6015 34.5703H14.8467C13.2136 34.5703 11.8774 33.0147 11.8774 31.1133C11.8774 29.2119 13.2136 27.6563 14.8467 27.6563H38.6015C40.2347 27.6563 41.5709 29.2119 41.5709 31.1133C41.5709 33.0147 40.2347 34.5703 38.6015 34.5703ZM38.6015 20.7422H14.8467C13.2136 20.7422 11.8774 19.1865 11.8774 17.2852C11.8774 15.3838 13.2136 13.8281 14.8467 13.8281H38.6015C40.2347 13.8281 41.5709 15.3838 41.5709 17.2852C41.5709 19.1865 40.2347 20.7422 38.6015 20.7422Z" fill="#337BD3"/>
</svg>
