<svg width="54" height="58" viewBox="0 0 54 58" fill="none" xmlns="http://www.w3.org/2000/svg">
<path d="M47.5096 5.77241H35.0977C33.8506 2.42441 30.5843 0 26.7241 0C22.864 0 19.5977 2.42441 18.3506 5.77241H5.9387C2.67241 5.77241 0 8.37 0 11.5448V51.9517C0 55.1266 2.67241 57.7241 5.9387 57.7241H47.5096C50.7759 57.7241 53.4483 55.1266 53.4483 51.9517V11.5448C53.4483 8.37 50.7759 5.77241 47.5096 5.77241ZM26.7241 5.77241C28.3573 5.77241 29.6935 7.07121 29.6935 8.65862C29.6935 10.246 28.3573 11.5448 26.7241 11.5448C25.091 11.5448 23.7548 10.246 23.7548 8.65862C23.7548 7.07121 25.091 5.77241 26.7241 5.77241ZM29.6935 46.1793H14.8467C13.2136 46.1793 11.8774 44.8805 11.8774 43.2931C11.8774 41.7057 13.2136 40.4069 14.8467 40.4069H29.6935C31.3266 40.4069 32.6628 41.7057 32.6628 43.2931C32.6628 44.8805 31.3266 46.1793 29.6935 46.1793ZM38.6015 34.6345H14.8467C13.2136 34.6345 11.8774 33.3357 11.8774 31.7483C11.8774 30.1609 13.2136 28.8621 14.8467 28.8621H38.6015C40.2347 28.8621 41.5709 30.1609 41.5709 31.7483C41.5709 33.3357 40.2347 34.6345 38.6015 34.6345ZM38.6015 23.0897H14.8467C13.2136 23.0897 11.8774 21.7909 11.8774 20.2034C11.8774 18.616 13.2136 17.3172 14.8467 17.3172H38.6015C40.2347 17.3172 41.5709 18.616 41.5709 20.2034C41.5709 21.7909 40.2347 23.0897 38.6015 23.0897Z" fill="#337BD3"/>
</svg>
