<svg width="54" height="63" viewBox="0 0 54 63" fill="none" xmlns="http://www.w3.org/2000/svg">
<path d="M5.34483 18.668H6.10837C9.04803 18.668 11.4532 21.4682 11.4532 24.8907V56.004C11.4532 59.4264 9.04803 62.2266 6.10837 62.2266H5.34483C2.40517 62.2266 0 59.4264 0 56.004V24.8907C0 21.4682 2.40517 18.668 5.34483 18.668ZM26.7241 0C29.6638 0 32.069 2.8002 32.069 6.22266V56.004C32.069 59.4264 29.6638 62.2266 26.7241 62.2266C23.7845 62.2266 21.3793 59.4264 21.3793 56.004V31.1133V6.22266C21.3793 2.8002 23.7845 0 26.7241 0ZM48.1035 35.5581C51.0431 35.5581 53.4483 38.3583 53.4483 41.7807V56.004C53.4483 59.4264 51.0431 62.2266 48.1035 62.2266C45.1638 62.2266 42.7586 59.4264 42.7586 56.004V41.7807C42.7586 38.3583 45.1638 35.5581 48.1035 35.5581Z" fill="#337BD3"/>
</svg>
